<svg id="svg" version="1.1" xmlns="http://www.w3.org/2000/svg" xmlns:xlink="http://www.w3.org/1999/xlink" width="24" height="24" viewBox="0, 0, 400,400"><g id="svgg"><path id="path0" d="M219.828 6.381 C 205.764 12.165,191.502 26.246,184.000 41.754 L 181.500 46.922 175.315 46.961 C 165.179 47.025,146.148 51.645,129.398 58.109 C 120.340 61.604,118.127 61.553,99.601 57.423 C 85.347 54.246,68.926 48.689,51.029 40.989 C 30.434 32.127,9.387 30.564,18.945 38.607 C 22.289 41.421,26.526 47.807,25.638 48.695 C 25.314 49.020,24.352 48.707,23.500 48.000 C 19.769 44.904,20.247 47.671,25.873 61.750 C 27.951 66.949,27.952 67.000,25.985 67.000 C 24.893 67.000,24.000 67.155,24.000 67.345 C 24.000 68.166,38.209 98.390,39.575 100.474 C 42.668 105.195,48.000 119.554,48.000 123.164 C 48.000 127.185,43.631 131.167,35.489 134.569 C 32.350 135.881,30.710 138.000,32.835 138.000 C 34.006 138.000,46.164 133.974,48.089 132.948 C 49.309 132.298,50.064 132.910,51.339 135.585 C 53.565 140.253,53.520 140.592,49.539 149.209 C 43.742 161.755,37.546 184.476,32.950 210.041 C 28.587 234.308,29.086 287.056,33.799 299.749 C 35.611 304.631,38.872 307.296,37.635 302.884 C 35.697 295.974,33.843 270.395,34.273 256.500 C 34.762 240.668,35.990 233.867,44.671 198.917 L 48.500 183.500 49.211 206.500 C 50.204 238.599,52.565 265.177,55.743 280.000 C 61.767 308.106,57.985 361.646,48.416 383.711 C 46.265 388.672,42.000 399.293,42.000 399.690 C 42.000 399.860,45.799 400.000,50.443 400.000 L 58.887 400.000 61.508 395.750 L 64.129 391.500 63.788 395.750 L 63.447 400.000 174.846 400.000 C 289.356 400.000,292.680 399.890,281.849 396.452 C 280.217 395.934,280.000 395.285,280.586 392.663 C 280.975 390.924,281.565 387.104,281.897 384.176 L 282.500 378.853 288.534 389.176 L 294.568 399.500 339.784 399.760 L 385.000 400.020 385.000 358.891 L 385.000 317.762 381.627 312.131 C 365.039 284.436,346.275 239.242,336.087 202.446 C 333.337 192.516,330.771 183.516,330.383 182.446 C 329.996 181.376,331.789 183.331,334.368 186.791 C 342.230 197.341,380.830 233.852,384.250 233.973 C 384.663 233.988,385.000 232.377,385.000 230.393 C 385.000 227.129,384.080 225.916,375.327 217.643 C 350.695 194.361,337.233 176.085,320.638 143.395 C 314.481 131.268,312.307 117.000,316.615 117.000 C 318.071 117.000,318.081 116.773,316.721 114.697 C 314.542 111.371,318.032 82.831,322.431 68.000 C 323.165 65.525,323.654 61.475,323.517 59.000 C 323.294 54.962,323.633 54.176,326.814 51.349 L 330.360 48.198 328.540 45.421 L 326.721 42.644 330.360 39.309 C 334.872 35.174,334.889 34.448,330.504 33.001 L 327.009 31.848 330.004 27.494 C 334.243 21.333,333.999 20.683,327.750 21.492 C 309.474 23.859,293.043 28.971,275.540 37.735 C 268.413 41.304,256.378 47.075,248.797 50.559 L 235.012 56.893 230.515 54.904 C 228.041 53.809,222.834 52.106,218.943 51.117 L 211.868 49.321 217.497 44.176 C 225.564 36.804,237.060 29.546,245.611 26.427 C 253.140 23.681,255.697 21.272,249.750 22.527 C 239.234 24.746,222.268 34.600,212.234 44.316 C 207.943 48.472,202.364 49.635,199.585 46.953 C 196.714 44.182,217.823 20.914,231.464 11.813 C 236.434 8.497,240.650 5.383,240.833 4.892 C 241.589 2.870,225.610 4.002,219.828 6.381 M276.777 377.500 L 275.386 386.500 272.081 376.026 C 268.164 363.611,266.732 355.492,263.528 327.500 C 263.276 325.300,266.467 333.625,270.619 346.000 L 278.169 368.500 276.777 377.500 " stroke="none" fill="currentColor" fill-rule="evenodd"></path></g></svg>